FFmpeg version SVN-r25716, Copyright (c) 2000-2010 the FFmpeg developers  built on Nov 10 2010 12:23:18 with gcc 4.1.2 20080704 (Red Hat 4.1.2-48)  configuration: --enable-libmp3lame --enable-shared --disable-mmx --arch=x86_64  libavutil     50.33. 0 / 50.33. 0  libavcore      0.12. 1 /  0.12. 1  libavcodec    52.94. 4 / 52.94. 4  libavformat   52.84. 0 / 52.84. 0  libavdevice   52. 2. 2 / 52. 2. 2  libavfilter    1.59. 0 /  1.59. 0  libswscale     0.12. 0 /  0.12. 0Input #0, avi, from '/RAID10/data/converted_video_files/7654.avi':  Duration: 00:00:42.85, start: 0.000000, bitrate: 26376 kb/s    Stream #0.0: Video: rawvideo, bgr24, 352x446, 7 tbr, 7 tbn, 7 tbc    Metadata:      title           : FileAVI write  [buffer @ 0x648f180] w:352 h:446 pixfmt:bgr24[ffsink @ 0x648f3f0] auto-inserting filter 'auto-inserted scaler 0' between the filter 'src' and the filter 'out'[scale @ 0x648f710] w:352 h:446 fmt:bgr24 -> w:352 h:446 fmt:yuv420p flags:0x4Output #0, flv, to '/RAID10/data/converted_video_files/7654.flv':  Metadata:    encoder         : Lavf52.84.0    Stream #0.0: Video: flv, yuv420p, 352x446, q=2-31, 600 kb/s, 1k tbn, 24 tbc    Metadata:      title           : FileAVI write  Stream mapping:  Stream #0.0 -> #0.0Press [q] to stop encodingframe=   74 fps=  0 q=4.7 size=     477kB time=10.46 bitrate= 373.3kbits/s    frame=  140 fps=138 q=4.5 size=     965kB time=19.92 bitrate= 397.0kbits/s    frame=  203 fps=134 q=3.8 size=    1495kB time=28.92 bitrate= 423.6kbits/s    frame=  268 fps=132 q=3.4 size=    2068kB time=38.17 bitrate= 443.8kbits/s    frame=  300 fps=131 q=3.5 Lsize=    2362kB time=42.75 bitrate= 452.5kbits/s    video:2357kB audio:0kB global headers:0kB muxing overhead 0.207606%